<?xml version="1.0" standalone="no"?>
<!DOCTYPE svg PUBLIC "-//W3C//DTD SVG 20010904//EN"
 "http://www.w3.org/TR/2001/REC-SVG-20010904/DTD/svg10.dtd">
<svg version="1.0" xmlns="http://www.w3.org/2000/svg"
 width="640.000000pt" height="640.000000pt" viewBox="0 0 640.000000 640.000000"
 preserveAspectRatio="xMidYMid meet">

<g transform="translate(0.000000,640.000000) scale(0.100000,-0.100000)"
fill="#000000" stroke="none">
<path d="M2890 6144 c-814 -92 -1521 -496 -2017 -1152 -285 -376 -472 -809
-552 -1275 -35 -203 -44 -335 -38 -591 6 -273 22 -391 84 -646 70 -289 234
-660 396 -900 182 -270 371 -478 611 -675 407 -333 930 -556 1466 -626 137
-18 580 -19 715 -1 111 15 325 56 395 77 165 50 218 68 325 110 666 264 1224
783 1544 1437 142 292 220 541 277 888 21 128 30 541 15 693 -38 391 -139 737
-316 1082 -147 288 -313 515 -545 745 -559 556 -1283 853 -2065 849 -99 -1
-232 -7 -295 -15z m670 -128 c350 -51 597 -129 905 -283 699 -352 1234 -1013
1439 -1783 81 -304 112 -652 87 -970 -96 -1210 -945 -2221 -2111 -2515 -252
-63 -380 -78 -680 -78 -299 0 -430 15 -680 78 -708 178 -1321 631 -1705 1260
-294 481 -430 1008 -411 1585 39 1201 812 2227 1956 2598 194 63 418 107 650
126 95 8 450 -4 550 -18z"/>
<path d="M3075 5310 c-271 -43 -509 -258 -584 -528 -68 -246 -9 -487 177 -720
l53 -67 -203 -6 c-220 -7 -294 -19 -431 -71 -110 -42 -227 -109 -339 -194
-123 -93 -156 -109 -248 -123 -138 -22 -158 -50 -159 -226 -1 -77 -5 -106 -18
-125 -25 -36 -31 -177 -8 -235 20 -54 35 -63 175 -103 58 -17 113 -34 123 -37
15 -6 17 1 17 76 0 72 4 93 29 144 34 71 87 127 156 163 44 24 61 27 150 27
89 0 106 -3 155 -27 68 -33 132 -95 162 -157 19 -38 23 -62 23 -143 l0 -98
653 0 652 0 0 25 c0 74 -90 179 -197 230 -166 79 -346 118 -694 150 -83 7
-154 17 -157 20 -12 13 519 -4 628 -19 202 -28 337 -62 444 -111 76 -35 172
-109 209 -161 l32 -45 11 53 c24 117 92 210 189 258 43 21 64 25 150 25 91 0
105 -3 158 -29 68 -35 130 -98 160 -164 17 -37 21 -66 21 -139 l0 -93 138 0
c171 0 199 9 221 71 9 24 18 92 22 150 6 118 -6 177 -50 235 -76 101 -324 184
-700 234 -217 29 -263 39 -331 74 -89 46 -323 190 -324 199 0 5 18 27 39 50
106 114 225 276 274 372 55 111 72 189 72 340 -1 185 -25 267 -127 420 -149
223 -446 348 -723 305z m206 -230 c257 -48 448 -310 409 -557 -23 -143 -81
-229 -319 -473 l-170 -175 -184 185 c-266 267 -313 348 -311 535 0 121 21 185
89 281 116 162 299 239 486 204z m-761 -1355 l0 -155 -330 0 c-290 0 -331 2
-337 16 -7 18 22 51 98 109 147 114 331 180 512 184 l57 1 0 -155z m384 82
c164 -169 216 -225 216 -231 0 -3 -103 -6 -229 -6 l-228 0 -7 78 c-4 42 -9
112 -13 155 l-6 77 98 0 99 0 70 -73z m652 -142 c156 -100 160 -95 -76 -95
l-202 0 73 80 c39 44 79 80 87 80 9 0 61 -29 118 -65z m1133 -341 c121 -30
171 -71 171 -139 0 -29 -7 -30 -82 -14 -103 22 -208 98 -208 149 0 25 29 26
119 4z"/>
<path d="M3150 4831 c-232 -49 -270 -367 -56 -471 48 -23 133 -27 187 -8 162
55 220 265 107 393 -65 73 -151 104 -238 86z"/>
<path d="M4185 3209 c-135 -17 -225 -122 -225 -262 1 -150 110 -257 261 -257
79 0 125 17 180 67 63 57 84 105 84 193 -1 61 -5 84 -27 125 -30 58 -47 75
-106 106 -56 28 -104 36 -167 28z m105 -134 c70 -36 96 -140 51 -203 -84 -119
-275 -47 -256 97 11 95 119 150 205 106z"/>
<path d="M1855 3189 c-94 -47 -147 -136 -146 -245 1 -151 119 -261 270 -252
77 5 125 25 174 75 56 55 72 97 72 183 0 117 -48 195 -150 241 -56 26 -167 25
-220 -2z m186 -122 c72 -48 86 -134 35 -202 -71 -93 -228 -52 -243 63 -16 123
108 206 208 139z"/>
<path d="M680 2454 c0 -3 19 -42 43 -87 33 -64 43 -96 47 -147 4 -57 8 -65 26
-68 20 -3 22 2 26 65 3 59 10 78 51 148 26 44 47 83 47 87 0 5 -11 8 -25 8
-21 0 -31 -11 -57 -65 -18 -36 -35 -65 -38 -65 -3 0 -20 29 -38 65 -26 54 -36
65 -57 65 -14 0 -25 -3 -25 -6z"/>
<path d="M960 2358 c-18 -57 -39 -122 -46 -146 -18 -56 -18 -62 7 -62 15 0 25
11 36 40 16 40 17 40 68 40 51 0 52 0 68 -40 10 -27 21 -40 35 -40 37 0 38 -7
-32 198 l-38 112 -33 0 -33 0 -32 -102z m91 -25 l18 -53 -40 0 c-21 0 -39 5
-39 11 0 26 34 123 38 109 3 -8 13 -39 23 -67z"/>
<path d="M1226 2439 c-20 -16 -26 -29 -26 -58 0 -45 15 -60 93 -91 55 -21 63
-31 57 -70 -5 -38 -70 -41 -98 -5 -22 27 -62 34 -62 11 0 -8 11 -28 24 -43 22
-25 31 -28 86 -28 55 0 64 3 86 28 50 59 19 126 -71 153 -62 17 -69 25 -61 60
5 20 13 24 41 24 24 0 39 -6 47 -20 15 -24 58 -27 58 -5 0 9 -12 27 -26 40
-35 33 -109 35 -148 4z"/>
<path d="M1462 2308 l3 -153 25 0 25 0 1 153 1 152 -29 0 -29 0 3 -152z"/>
<path d="M1592 2308 c3 -145 4 -153 23 -153 18 0 20 8 23 69 l3 69 46 -7 c26
-3 49 -9 52 -12 3 -3 8 -31 11 -62 4 -50 8 -57 28 -60 21 -3 22 0 22 55 0 38
-6 67 -16 82 -10 14 -13 26 -7 30 14 9 33 47 33 66 0 9 -13 30 -29 46 -28 27
-34 29 -110 29 l-82 0 3 -152z m146 100 c17 -17 15 -65 -4 -72 -9 -3 -33 -6
-55 -6 l-39 0 0 45 0 45 43 0 c24 0 48 -5 55 -12z"/>
<path d="M1860 2351 c0 -168 17 -196 118 -196 57 0 66 3 88 28 23 26 24 35 24
153 l0 124 -25 0 -25 0 0 -118 c0 -131 -9 -152 -63 -152 -47 0 -57 22 -58 128
-1 53 0 107 1 120 1 18 -4 22 -29 22 l-31 0 0 -109z"/>
<path d="M2240 2440 c0 -17 7 -20 45 -20 l45 0 0 -135 0 -135 25 0 25 0 0 135
0 135 45 0 c38 0 45 3 45 20 0 19 -7 20 -115 20 -108 0 -115 -1 -115 -20z"/>
<path d="M2540 2457 c0 -3 -20 -70 -45 -149 -25 -78 -45 -146 -45 -150 0 -13
37 -9 47 5 6 6 13 25 17 40 6 27 9 28 63 25 55 -3 57 -4 68 -38 11 -34 39 -51
55 -33 4 4 -13 73 -39 153 l-47 145 -37 3 c-20 2 -37 1 -37 -1z m60 -116 l18
-61 -39 0 c-23 0 -39 5 -39 12 0 17 33 118 37 114 2 -2 13 -31 23 -65z"/>
<path d="M2766 2385 l46 -74 -46 -78 c-35 -61 -42 -79 -30 -81 27 -6 41 6 70
57 15 28 30 51 33 51 4 0 22 -25 40 -55 26 -42 39 -55 57 -55 13 0 24 4 24 10
0 5 -18 38 -40 72 -22 35 -40 70 -40 78 0 8 18 43 40 78 22 34 40 65 40 67 0
3 -11 5 -25 5 -19 0 -31 -9 -43 -31 -9 -17 -24 -41 -33 -52 -16 -21 -17 -20
-43 21 -14 23 -26 46 -26 52 0 5 -16 10 -35 10 l-35 0 46 -75z"/>
<path d="M3010 2304 l0 -155 23 3 c22 3 22 6 25 156 l3 152 -26 0 -25 0 0
-156z"/>
<path d="M3300 2456 c0 -3 -20 -71 -45 -150 -25 -80 -45 -148 -45 -151 0 -3 8
-5 19 -5 23 0 36 16 45 53 6 27 9 28 63 25 55 -3 57 -4 68 -38 9 -27 18 -36
38 -38 15 -2 27 0 27 5 0 5 -22 74 -48 153 l-49 145 -36 3 c-20 2 -37 1 -37
-2z m54 -93 c8 -27 17 -56 21 -65 6 -15 1 -18 -34 -18 -23 0 -41 2 -41 5 0 10
33 125 36 125 2 0 10 -21 18 -47z"/>
<path d="M3520 2305 c0 -148 1 -155 20 -155 18 0 20 8 22 123 l3 122 63 -123
c62 -122 63 -123 95 -120 l32 3 2 153 2 152 -24 0 c-24 0 -24 -1 -27 -117 l-3
-118 -60 117 c-58 114 -61 118 -92 118 l-33 0 0 -155z"/>
<path d="M3830 2304 l0 -157 78 6 c88 6 114 17 143 64 26 41 28 142 5 179 -31
46 -74 64 -153 64 l-73 0 0 -156z m155 93 c52 -44 42 -162 -16 -193 -17 -8
-42 -14 -57 -12 l-27 3 -3 113 -3 112 40 0 c27 0 48 -7 66 -23z"/>
<path d="M4220 2440 c0 -17 7 -20 40 -20 l39 0 3 -132 3 -133 25 0 25 0 2 130
1 130 41 3 c33 3 41 7 41 23 0 18 -8 19 -110 19 -103 0 -110 -1 -110 -20z"/>
<path d="M4540 2453 c-50 -20 -80 -80 -80 -158 0 -88 52 -145 133 -145 96 0
157 99 128 208 -19 69 -48 95 -112 98 -30 2 -61 1 -69 -3z m109 -59 c16 -21
21 -41 21 -91 0 -55 -4 -67 -25 -89 -34 -34 -80 -30 -109 9 -31 41 -28 138 4
172 32 35 82 34 109 -1z"/>
<path d="M4790 2334 c0 -125 0 -126 29 -155 25 -24 37 -29 80 -29 42 0 56 5
83 29 l33 29 4 126 3 126 -31 0 -31 0 0 -119 c0 -132 -8 -151 -59 -151 -52 0
-61 24 -61 153 l0 117 -25 0 -25 0 0 -126z"/>
<path d="M5092 2308 c3 -145 4 -153 23 -153 18 0 20 8 23 69 l3 69 41 -6 c52
-7 59 -14 66 -78 6 -45 10 -54 27 -54 18 0 20 7 20 63 0 48 -4 67 -17 76 -16
12 -15 14 4 34 30 29 27 81 -7 110 -22 19 -38 22 -106 22 l-80 0 3 -152z m139
102 c21 -12 25 -50 7 -68 -7 -7 -31 -12 -55 -12 l-43 0 0 45 c0 45 0 45 36 45
19 0 44 -5 55 -10z"/>
<path d="M5380 2435 c-46 -49 -23 -113 49 -136 55 -17 81 -37 81 -62 0 -51
-64 -65 -98 -22 -22 27 -62 34 -62 11 0 -8 10 -27 23 -42 18 -20 34 -28 73
-31 29 -2 59 1 73 9 33 17 50 64 40 104 -9 31 -38 50 -122 83 -23 9 -28 16
-25 39 3 23 8 27 40 30 29 2 39 -1 48 -17 6 -13 21 -21 35 -21 28 0 30 3 13
33 -19 36 -40 46 -94 47 -41 0 -55 -5 -74 -25z"/>
</g>
</svg>
